<svg width="257" height="72" viewBox="0 0 257 72" fill="none" xmlns="http://www.w3.org/2000/svg">
<g clip-path="url(#clip0_1_332)">
<path d="M0.75 0H42.8152V16.7174H30.6252V71.5089H13.3716V16.7174H0.75V0Z" fill="white"/>
<path d="M63.1877 29.1232H65.6672C69.9798 29.1232 71.7072 26.101 71.7072 21.7884C71.7072 17.4705 69.874 15.3179 65.9888 15.3179H63.1877V29.1232ZM45.9277 71.5089V0H66.7472C83.3535 0 88.5346 9.59947 88.5346 18.8763C88.5346 26.9642 83.5693 32.25 79.0409 34.8363V35.2679C84.0009 36.6737 89.2877 41.091 89.2877 51.3379V71.5089H72.0277V51.7694C72.0277 47.0252 70.5225 44.6505 66.2046 44.6505H63.1877V71.5089H45.9277Z" fill="white"/>
<path d="M117.695 21.573L114.026 43.2503H121.902L118.343 21.573H117.695ZM108.313 0.000366211H128.374L144.764 71.5093H127.078L124.599 58.2403H111.114L108.633 71.5093H91.4844L108.313 0.000366211Z" fill="white"/>
<path d="M245.615 36.4709C252.973 36.4709 257 33.5376 257 28.218C257 22.3017 252.029 20.8103 247.007 19.6171C243.179 18.7222 241.688 18.6227 241.688 16.9324C241.688 15.6895 242.632 14.894 244.82 14.894C247.455 14.894 248.548 15.9878 248.797 18.0261H256.254C256.006 13.5517 252.824 9.42524 244.671 9.42524C237.511 9.42524 233.534 12.6568 233.534 17.4296C233.534 22.6 238.158 24.3898 242.632 25.4339C246.311 26.279 248.847 26.5276 248.847 28.8146C248.847 30.2563 247.803 31.0021 245.466 31.0021C242.433 31.0021 240.743 29.7592 240.494 27.2237H233.037C233.236 32.1953 236.716 36.4709 245.615 36.4709ZM218.043 30.5049C214.811 30.5049 212.922 27.9197 212.922 22.9481C212.922 17.9764 214.811 15.3912 218.043 15.3912C221.274 15.3912 223.164 17.9764 223.164 22.9481C223.164 27.9197 221.274 30.5049 218.043 30.5049ZM220.23 9.42524C216.551 9.42524 213.867 11.4139 212.872 12.7562H212.773V0.128296H204.818V35.6754H212.773V33.1399H212.872C213.867 34.4822 216.551 36.4709 220.23 36.4709C226.992 36.4709 231.317 31.3004 231.317 22.9481C231.317 14.5957 226.992 9.42524 220.23 9.42524ZM187.507 31.0021C185.469 31.0021 184.226 30.1072 184.226 28.1683C184.226 26.3785 185.27 25.1356 188.204 24.4395C190.292 23.9424 191.485 23.6441 192.529 23.2464V25.3842C192.529 28.3174 190.689 31.0021 187.507 31.0021ZM184.176 36.4709C187.855 36.4709 190.789 34.8302 192.579 32.593H192.678C193.076 34.7308 194.269 35.924 197.451 35.924C198.594 35.924 200.235 35.7749 201.826 35.4766V31.6981C201.527 31.7478 201.378 31.7478 201.179 31.7478C200.384 31.7478 200.235 31.1512 200.235 29.8089V19.9651C200.235 12.1596 196.407 9.37552 189.496 9.37552C180.895 9.37552 177.316 13.5517 177.067 18.4239H184.624C184.873 15.9381 186.215 14.7449 189.148 14.7449C191.435 14.7449 192.529 15.6398 192.529 17.0318C192.529 19.5674 188.601 19.9651 185.817 20.5617C180.398 21.7052 176.073 23.7435 176.073 29.0134C176.073 33.5376 179.205 36.4709 184.176 36.4709ZM174.298 35.6754V28.3671H158.488V0.128296H149.539V35.6754H174.298Z" fill="white"/>
</g>
<defs>
<clipPath id="clip0_1_332">
<rect width="256.25" height="71.5091" fill="white" transform="translate(0.75)"/>
</clipPath>
</defs>
</svg>
